# xmcd
#
# Track frame offsets: 
#        150
#        12643
#        24545
#        36558
#        48548
#        61072
#        72304
#        86853
#        99882
#        110673
#        124905
#
# Disc length: 1823 seconds
#
# Revision: 0
# Processed by: cddbd v1.5.2PL0 Copyright (c) Steve Scherf et al.
# Submitted via: ExactAudioCopy v1.0b3
#
DISCID=9b071d0b
DTITLE=The Platters - Icon
DYEAR=2014
DGENRE=R&B
TTITLE0=Twilight Time
TTITLE1=Only You (And You Alone)
TTITLE2=The Great Pretender
TTITLE3=Smoke Gets In Your Eyes
TTITLE4=My Prayer
TTITLE5=(You've Got) The Magic Touch
TTITLE6=Harbor Light
TTITLE7=I'll Never Smile Again
TTITLE8=Red Sails In The Sunset
TTITLE9=If I Didn't Care
TTITLE10=You'll Never Never Know
EXTD=
EXTT0=
EXTT1=
EXTT2=
EXTT3=
EXTT4=
EXTT5=
EXTT6=
EXTT7=
EXTT8=
EXTT9=
EXTT10=
PLAYORDER=
